:version 1.10
:name ASF
:units
  mass 1
  length 1
  angle deg
:documentation
  ASF file generated by Kaydara
:root
  axis xyz
  order  tx ty tz rx ry rz
  position 0 0 0
  orientation 0 0 0
:bonedata
  begin
    id 1
    name RightUpLegDummy
    direction -0.718183 -0.695806 0.00816078
    length 4.904
    axis 0 0 0 xyz
  end
  begin
    id 2
    name RightUpLeg
    direction 3.53989e-006 -0.995788 0.0916897
    length 17.4976
    axis -3.49089 -0.000906621 0.000287158 xyz
    dof rx ry rz
  end
  begin
    id 3
    name RightLeg
    direction 0.00371093 -0.995096 -0.0988418
    length 16.5821
    axis 3.68512 0.0193738 -0.131023 xyz
    dof rx ry rz
  end
  begin
    id 4
    name RightFoot
    direction 0.000791514 -0.46099 0.887405
    length 3.77069
    axis 4.84075e-005 -0.120479 -0.188788 xyz
    dof rx ry rz
  end
  begin
    id 5
    name RightToes
    direction 0.00124746 -0.014064 0.9999
    length 3.85082
    axis 0.00048216 0.542163 -0.142577 xyz
    dof rx ry rz
  end
  begin
    id 6
    name SpineDummy
    direction 8.36599e-015 1 5.97571e-016
    length 4.6813
    axis 0 0 0 xyz
  end
  begin
    id 7
    name Spine
    direction -4.63632e-008 0.999988 0.00495137
    length 10.1015
    axis -0.00138897 0.000121419 3.25764e-006 xyz
    dof rx ry rz
  end
  begin
    id 8
    name Spine1
    direction 0 0 0
    length 0
    axis -0.00138896 0.000121452 2.39764e-006 xyz
    dof rx ry rz
  end
  begin
    id 9
    name HEadDummy
    direction -3.91456e-008 0.999999 0.00127422
    length 3.43865
    axis -0.00138896 0.000121452 2.39764e-006 xyz
  end
  begin
    id 10
    name HEad
    direction -0.0222688 0.980941 0.193023
    length 5.12695
    axis -0.00138895 0.000121452 2.39764e-006 xyz
    dof rx ry rz
  end
  begin
    id 11
    name LeftShoulder1Dummy
    direction 0.998891 -0.0402508 -0.0244456
    length 3.5433
    axis -0.00138896 0.000121452 2.39764e-006 xyz
  end
  begin
    id 12
    name LeftShoulder1
    direction 0.99951 -0.000327743 0.0313091
    length 4.05031
    axis -0.00138896 0.000121452 2.39764e-006 xyz
    dof rx ry rz
  end
  begin
    id 13
    name LeftArm
    direction 0.998561 -0.00100054 -0.0536182
    length 10.3537
    axis -23.1894 0.134784 0.96751 xyz
    dof rx ry rz
  end
  begin
    id 14
    name LeftForeArm
    direction 0.998903 0.00866434 0.046012
    length 8.70632
    axis -9.91835 -0.06569 -0.177792 xyz
    dof rx ry rz
  end
  begin
    id 15
    name LeftHand
    direction 0.992938 -0.0411636 0.11126
    length 5.32135
    axis -0.00960227 -0.00340091 0.185174 xyz
    dof rx ry rz
  end
  begin
    id 16
    name RightShoulderDummy
    direction -0.998891 -0.0402509 -0.0244414
    length 3.5433
    axis -0.00138896 0.000121452 2.39764e-006 xyz
  end
  begin
    id 17
    name RightShoulder
    direction -0.99951 -0.000327827 0.0313133
    length 4.05031
    axis 0.215806 0.000203644 -0.00680151 xyz
    dof rx ry rz
  end
  begin
    id 18
    name RightArm
    direction -0.998573 -0.000999583 -0.053403
    length 10.3947
    axis -23.2009 -0.134239 -0.9641 xyz
    dof rx ry rz
  end
  begin
    id 19
    name RightForeArm
    direction -0.998898 0.00868026 0.0461306
    length 8.68355
    axis -9.92322 0.0658061 0.178869 xyz
    dof rx ry rz
  end
  begin
    id 20
    name RightHand
    direction -0.992843 -0.0414603 0.112003
    length 5.28593
    axis -0.00960634 0.00330671 -0.185226 xyz
    dof rx ry rz
  end
  begin
    id 21
    name LeftUpLegDummy
    direction 0.718183 -0.695806 0.00816078
    length 4.904
    axis 0 0 0 xyz
  end
  begin
    id 22
    name LeftUpLeg
    direction -6.8115e-006 -0.995793 0.0916336
    length 17.4976
    axis -3.48766 0.00143441 -0.000523914 xyz
    dof rx ry rz
  end
  begin
    id 23
    name LeftLeg
    direction -0.00601357 -0.995091 -0.0987824
    length 16.5821
    axis 3.68177 -0.00654038 -0.00028478 xyz
    dof rx ry rz
  end
  begin
    id 24
    name LeftFoot
    direction -0.00417578 -0.460984 0.887399
    length 3.77069
    axis 1.87232e-006 4.66002e-005 -8.1837e-006 xyz
    dof rx ry rz
  end
  begin
    id 25
    name LeftToes
    direction 0.00818058 -0.00485161 0.999955
    length 3.85048
    axis 1.06246e-005 4.65855e-005 -8.18502e-006 xyz
    dof rx ry rz
  end
:hierarchy
  begin
    root RightUpLegDummy SpineDummy LeftUpLegDummy
    RightUpLegDummy RightUpLeg
    RightUpLeg RightLeg
    RightLeg RightFoot
    RightFoot RightToes
    SpineDummy Spine
    Spine Spine1
    Spine1 HEadDummy LeftShoulder1Dummy RightShoulderDummy
    HEadDummy HEad
    LeftShoulder1Dummy LeftShoulder1
    LeftShoulder1 LeftArm
    LeftArm LeftForeArm
    LeftForeArm LeftHand
    RightShoulderDummy RightShoulder
    RightShoulder RightArm
    RightArm RightForeArm
    RightForeArm RightHand
    LeftUpLegDummy LeftUpLeg
    LeftUpLeg LeftLeg
    LeftLeg LeftFoot
    LeftFoot LeftToes
  end

:SAMPLES-PER-SECOND 30
:FULLY-SPECIFIED
:DEGREES
24
root  -1.858 40.1172 13.9064 -175.432 -0.696289 179.982
RightUpLeg  -12.3941 -0.21909 -10.6754
RightLeg  12.0335 4.92893 -0.428003
RightFoot  -0.531034 -0.872074 9.15683
RightToes  -1.33073e-015 0 -3.6325e-017
Spine  13.0769 1.5841 2.16985
Spine1  14.0983 0.867229 3.26332
HEad  14.0457 -11.7099 1.13836
LeftShoulder1  7.00261 -16.0541 -29.7377
LeftArm  37.7281 -27.5503 -67.8367
LeftForeArm  -32.5236 -22.7744 -6.83926
LeftHand  -0.246645 0.021 5.37786
RightShoulder  8.9266 16.8832 37.715
RightArm  31.9394 32.3004 42.2951
RightForeArm  -7.42624 24.1247 5.53079
RightHand  -0.24729 -0.0210522 -5.37781
LeftUpLeg  -10.9934 9.59698 7.03628
LeftLeg  8.24361 -2.1314 -4.09506
LeftFoot  0.461816 0.469319 -4.56683
LeftToes  5.09284e-011 3.02203e-011 3.83118e-011
25
root  -1.71793 40.1008 13.849 -175.293 -0.933334 179.678
RightUpLeg  -11.5782 -2.31907 -10.9254
RightLeg  10.412 5.81713 -0.934112
RightFoot  0.752727 -0.990259 9.37122
RightToes  -1.33073e-015 0 -3.6325e-017
Spine  12.8832 1.52143 2.17119
Spine1  14.1586 0.869075 3.00976
HEad  13.3297 -11.4885 1.24743
LeftShoulder1  6.97727 -16.0555 -29.6107
LeftArm  38.8124 -27.298 -67.4648
LeftForeArm  -30.7403 -23.0012 -6.67115
LeftHand  -0.246645 0.021 5.37786
RightShoulder  8.94605 16.8892 37.7942
RightArm  31.5764 31.8663 42.3083
RightForeArm  -8.44468 24.5316 5.67232
RightHand  -0.24729 -0.0210522 -5.37781
LeftUpLeg  -10.9799 9.41646 6.90842
LeftLeg  8.00106 -2.20915 -4.0725
LeftFoot  0.530968 0.489216 -4.73605
LeftToes  5.09284e-011 3.02203e-011 3.83118e-011
26
root  -1.47269 40.0542 13.7838 -175.244 -0.874405 179.337
RightUpLeg  -10.6941 -4.16656 -10.9389
RightLeg  8.82805 7.9759 -1.04471
RightFoot  0.925565 -1.08097 10.0997
RightToes  -1.33073e-015 0 -3.6325e-017
Spine  12.7702 1.66002 1.97832
Spine1  14.1086 1.06316 2.79577
HEad  12.7016 -11.2499 1.22478
LeftShoulder1  6.96373 -16.0615 -29.5284
LeftArm  39.8986 -27.0634 -67.0238
LeftForeArm  -27.9434 -23.1632 -6.48062
LeftHand  -0.246645 0.021 5.37786
RightShoulder  8.98979 16.9246 37.927
RightArm  30.7247 31.3423 42.4295
RightForeArm  -10.5353 25.0384 5.88857
RightHand  -0.24729 -0.0210522 -5.37781
LeftUpLeg  -10.9699 9.46689 6.9537
LeftLeg  8.1293 -2.19955 -4.06188
LeftFoot  0.365996 0.516313 -5.05757
LeftToes  5.09284e-011 3.02203e-011 3.83118e-011
27
root  -1.15401 40.0202 13.7167 -175.208 -0.834763 179.149
RightUpLeg  -9.80875 -5.6922 -10.5006
RightLeg  7.37925 9.69592 -1.16217
RightFoot  0.0104763 -0.993731 9.96491
RightToes  -1.33073e-015 0 -3.6325e-017
Spine  12.7005 1.85837 1.92926
Spine1  13.9171 1.26408 2.84493
HEad  12.3249 -10.9916 1.10408
LeftShoulder1  6.96401 -16.0766 -29.5016
LeftArm  40.0191 -26.9751 -66.8592
LeftForeArm  -23.3358 -22.6353 -6.4282
LeftHand  -0.246645 0.021 5.37786
RightShoulder  9.07902 16.9879 38.2149
RightArm  29.2503 30.6847 42.3413
RightForeArm  -11.4022 25.5736 6.05355
RightHand  -0.24729 -0.0210522 -5.37781
LeftUpLeg  -10.8867 9.66769 7.22392
LeftLeg  8.12015 -2.31374 -3.9771
LeftFoot  0.310465 0.55831 -5.48829
LeftToes  5.09284e-011 3.02203e-011 3.83118e-011
28
root  -0.803613 40.0269 13.6555 -175.175 -1.02277 179.197
RightUpLeg  -9.09202 -6.69353 -9.71735
RightLeg  6.30268 10.0082 -1.33945
RightFoot  -0.754889 -0.826748 8.85534
RightToes  -1.33073e-015 0 -3.6325e-017
Spine  12.6637 1.91803 2.46916
Spine1  13.6584 1.37811 2.90601
HEad  12.0766 -10.6627 0.955049
LeftShoulder1  6.9402 -16.053 -29.4215
LeftArm  39.264 -27.094 -66.879
LeftForeArm  -18.2101 -21.5029 -6.7039
LeftHand  -0.246645 0.021 5.37786
RightShoulder  9.18048 17.0515 38.5569
RightArm  27.7053 30.0157 41.9672
RightForeArm  -10.5858 26.1587 6.15126
RightHand  -0.24729 -0.0210522 -5.37781
LeftUpLeg  -10.6949 9.86095 7.65495
LeftLeg  7.71835 -2.66715 -3.68625
LeftFoot  0.551713 0.622609 -6.00625
LeftToes  5.09284e-011 3.02203e-011 3.83118e-011
29
root  -0.443147 40.0484 13.6072 -175.174 -1.26782 179.456
RightUpLeg  -8.79482 -6.91874 -8.8109
RightLeg  6.00213 9.55855 -1.3912
RightFoot  -0.885605 -0.726225 7.86081
RightToes  -1.33073e-015 0 -3.6325e-017
Spine  12.6754 1.78705 3.77312
Spine1  13.4039 1.50415 2.50742
HEad  11.8222 -10.2166 0.786115
LeftShoulder1  6.85052 -15.9423 -29.1579
LeftArm  38.7208 -27.2834 -66.8002
LeftForeArm  -14.5972 -20.4572 -7.19445
LeftHand  -0.246645 0.021 5.37786
RightShoulder  9.2308 17.0881 38.7148
RightArm  26.7079 29.5441 41.6263
RightForeArm  -10.2089 26.7684 6.27719
RightHand  -0.24729 -0.0210522 -5.37781
LeftUpLeg  -10.5786 10.1082 8.23764
LeftLeg  7.40081 -3.18206 -3.23576
LeftFoot  0.825875 0.696805 -6.58226
LeftToes  5.09284e-011 3.02203e-011 3.83118e-011
30
root  -0.0810405 40.0369 13.575 -175.187 -1.39258 179.837
RightUpLeg  -9.01903 -6.65057 -7.89162
RightLeg  6.63455 9.23065 -1.23789
RightFoot  -1.07248 -0.67917 7.46634
RightToes  -1.33073e-015 0 -3.6325e-017
Spine  12.7488 1.55136 5.58144
Spine1  13.0777 1.71161 1.62789
HEad  11.6168 -9.67874 0.620649
LeftShoulder1  6.70807 -15.7691 -28.7276
LeftArm  38.8158 -27.2525 -66.6357
LeftForeArm  -12.7278 -19.8539 -7.55944
LeftHand  -0.246645 0.021 5.37786
RightShoulder  9.22194 17.1027 38.6426
RightArm  26.3979 29.3241 41.5697
RightForeArm  -12.0263 27.2164 6.47191
RightHand  -0.24729 -0.0210522 -5.37781
LeftUpLeg  -10.7811 10.5753 8.96328
LeftLeg  7.73391 -3.78692 -2.81881
LeftFoot  0.828788 0.76312 -7.2014
LeftToes  5.09284e-011 3.02203e-011 3.83118e-011
31
root  0.279747 39.9881 13.5584 -175.196 -1.57715 -179.86
RightUpLeg  -9.5289 -6.35889 -7.11633
RightLeg  7.85983 8.87011 -0.928127
RightFoot  -1.79778 -0.607842 7.12097
RightToes  -1.33073e-015 0 -3.6325e-017
Spine  12.9455 1.27679 7.26372
Spine1  12.5583 1.87831 0.699916
HEad  11.4673 -9.16227 0.557553
LeftShoulder1  6.58672 -15.6194 -28.3585
LeftArm  38.2615 -26.8064 -66.5144
LeftForeArm  -10.6051 -19.4333 -7.75875
LeftHand  -0.246645 0.021 5.37786
RightShoulder  9.20455 17.1182 38.5292
RightArm  26.3909 29.1717 41.7162
RightForeArm  -15.3934 27.4551 6.68874
RightHand  -0.24729 -0.0210522 -5.37781
LeftUpLeg  -11.1961 11.2095 9.6239
LeftLeg  8.41627 -4.60508 -2.54154
LeftFoot  0.741143 0.830161 -7.8795
LeftToes  5.09284e-011 3.02203e-011 3.83118e-011
32
root  0.625014 39.9336 13.5533 -175.255 -2.06981 -179.698
RightUpLeg  -9.95239 -6.26746 -6.52083
RightLeg  9.13563 8.19277 -0.625515
RightFoot  -2.67176 -0.513246 6.52316
RightToes  -1.33073e-015 0 -3.6325e-017
Spine  13.271 0.969602 8.55704
Spine1  11.9426 1.8693 0.129491
HEad  11.1657 -8.81125 0.646285
LeftShoulder1  6.55364 -15.5537 -28.3027
LeftArm  36.7538 -25.9962 -66.384
LeftForeArm  -7.6375 -19.099 -7.80001
LeftHand  -0.246645 0.021 5.37786
RightShoulder  9.20523 17.1307 38.5061
RightArm  26.0755 28.8697 41.8315
RightForeArm  -18.6273 27.7437 6.9071
RightHand  -0.24729 -0.0210522 -5.37781
LeftUpLeg  -11.6224 11.8274 10.1309
LeftLeg  9.03022 -5.77779 -2.44381
LeftFoot  0.799178 0.903379 -8.53032
LeftToes  5.09284e-011 3.02203e-011 3.83118e-011
33
root  0.947806 39.9055 13.55 -175.357 -2.82274 -179.669
RightUpLeg  -10.1266 -6.26337 -6.08015
RightLeg  10.0707 7.38335 -0.471068
RightFoot  -3.22302 -0.448736 6.00985
RightToes  -1.33073e-015 0 -3.6325e-017
Spine  13.5496 0.673456 9.45691
Spine1  11.5223 1.73053 -0.102414
HEad  10.6091 -8.69657 0.81746
LeftShoulder1  6.60121 -15.5658 -28.5361
LeftArm  35.5607 -25.0395 -66.0913
LeftForeArm  -5.47596 -19.0346 -7.6785
LeftHand  -0.246645 0.021 5.37786
RightShoulder  9.2029 17.1171 38.5236
RightArm  25.1518 28.3149 41.8488
RightForeArm  -20.976 28.2779 7.14347
RightHand  -0.24729 -0.0210522 -5.37781
LeftUpLeg  -11.9675 12.4627 10.5393
LeftLeg  9.39635 -7.27278 -2.58202
LeftFoot  1.17122 0.986171 -9.04809
LeftToes  5.09284e-011 3.02203e-011 3.83118e-011
34
root  1.24271 39.9016 13.5396 -175.388 -3.65306 -179.757
RightUpLeg  -10.2043 -6.22813 -5.78376
RightLeg  10.6882 6.59542 -0.449094
RightFoot  -3.5721 -0.414487 5.74009
RightToes  -1.33073e-015 0 -3.6325e-017
Spine  13.5973 0.44306 10.0046
Spine1  11.4068 1.56721 -0.196067
HEad  10.0271 -8.77566 1.04639
LeftShoulder1  6.66294 -15.625 -28.7565
LeftArm  35.002 -24.058 -65.6615
LeftForeArm  -5.20416 -19.1064 -7.5908
LeftHand  -0.246645 0.021 5.37786
RightShoulder  9.17944 17.0804 38.4914
RightArm  23.7674 27.4566 41.8653
RightForeArm  -22.793 28.9403 7.38897
RightHand  -0.24729 -0.0210522 -5.37781
LeftUpLeg  -12.3251 13.235 10.8582
LeftLeg  9.57989 -8.99689 -2.93394
LeftFoot  1.95156 1.11015 -9.60958
LeftToes  5.09284e-011 3.02203e-011 3.83118e-011
35
root  1.48676 39.9 13.523 -175.289 -4.51195 -179.918
RightUpLeg  -10.3536 -6.26726 -5.62613
RightLeg  11.198 5.78696 -0.464355
RightFoot  -3.96373 -0.380847 5.48235
RightToes  -1.33073e-015 0 -3.6325e-017
Spine  13.4574 0.24473 10.3322
Spine1  11.4126 1.38049 -0.241322
HEad  9.62045 -8.97785 1.42178
LeftShoulder1  6.69506 -15.7122 -28.7649
LeftArm  34.3132 -22.9662 -65.223
LeftForeArm  -6.55195 -19.1655 -7.61023
LeftHand  -0.246645 0.021 5.37786
RightShoulder  9.13459 17.0415 38.3631
RightArm  22.0505 26.2478 42.0165
RightForeArm  -24.6321 29.604 7.63726
RightHand  -0.24729 -0.0210522 -5.37781
LeftUpLeg  -12.7976 13.8502 11.0129
LeftLeg  9.71352 -10.8361 -3.31063
LeftFoot  2.92839 1.29621 -10.4742
LeftToes  5.09284e-011 3.02203e-011 3.83118e-011
36
root  1.65634 39.8949 13.5056 -175.143 -5.32983 179.932
RightUpLeg  -10.5165 -6.42437 -5.56117
RightLeg  11.6128 5.05718 -0.463674
RightFoot  -4.29214 -0.347825 5.16873
RightToes  -1.33073e-015 0 -3.6325e-017
Spine  13.3073 0.0411094 10.6006
Spine1  11.401 1.17865 -0.287919
HEad  9.26982 -9.28606 1.92655
LeftShoulder1  6.71838 -15.805 -28.7158
LeftArm  33.5554 -21.7378 -64.7654
LeftForeArm  -9.4821 -19.4974 -7.50745
LeftHand  -0.246645 0.021 5.37786
RightShoulder  9.06182 16.9938 38.1216
RightArm  20.0537 24.7927 42.3846
RightForeArm  -26.5993 30.2237 7.88033
RightHand  -0.24729 -0.0210522 -5.37781
LeftUpLeg  -13.3061 13.835 11.0404
LeftLeg  9.89559 -12.4236 -3.50086
LeftFoot  3.45196 1.44 -11.2331
LeftToes  5.09284e-011 3.02203e-011 3.83118e-011
